# xmcd
#
# Track frame offsets:
#	150
#	15009
#	33793
#	49905
#	64125
#	84749
#	103470
#	123672
#	141373
#	163863
#	179021
#	195520
#	216458
#	233548
#	252709
#	269822
#	288616
#
# Disc length: 4086 seconds
#
# Revision: 1
# Processed by: cddbd v1.5.2PL0 Copyright (c) Steve Scherf et al.
# Submitted via: audiograbber 1.83.01
#
DISCID=0e0ff411
DTITLE=Various Artist - CBEP490-05
DYEAR=2007
DGENRE=Country
TTITLE0=Mark Wills - Days Of Thunder
TTITLE1=Travis Tritt - You Never Take Me Dancing
TTITLE2=Gretchen Wilson - You Don't Have To Go Home
TTITLE3=Chris Young - You're Gonna Love Me
TTITLE4=Kenny Chesney - Don't Blink
TTITLE5=Chuck Wicks - Stealing Cinderella
TTITLE6=Martina McBride - For These Times
TTITLE7=Blake Shelton - Don't Make Me
TTITLE8=Rascal Flatts - Winner At A Losing Game
TTITLE9=Jo Dee Messina - Biker Chick
TTITLE10=Garth Brooks - More Than A Memory
TTITLE11=Keith Urban - I Told You So
TTITLE12=Trent Tomlinson - Just Might Have Her Radio On
TTITLE13=Dusty Drake - Say Yes
TTITLE14=Dolly Parton - Better Get To Livin'
TTITLE15=Little Big Town - I'm With The Band
TTITLE16=Rodney Atkins - Cleaning This Gun
EXTD=
EXTT0=
EXTT1=
EXTT2=
EXTT3=
EXTT4=
EXTT5=
EXTT6=
EXTT7=
EXTT8=
EXTT9=
EXTT10=
EXTT11=
EXTT12=
EXTT13=
EXTT14=
EXTT15=
EXTT16=
PLAYORDER=
